<?xml version="1.0" encoding="utf-8"?>
<!-- Generator: Adobe Illustrator 18.1.1, SVG Export Plug-In . SVG Version: 6.00 Build 0)  -->
<!DOCTYPE svg PUBLIC "-//W3C//DTD SVG 1.1//EN" "http://www.w3.org/Graphics/SVG/1.1/DTD/svg11.dtd">
<svg version="1.1" id="Layer_3" xmlns="http://www.w3.org/2000/svg" xmlns:xlink="http://www.w3.org/1999/xlink" x="0px" y="0px"
	 viewBox="0 0 128.5 131.7" enable-background="new 0 0 128.5 131.7" xml:space="preserve">
<g>
	<g>
		<path fill="#FFFFFF" d="M34.3,60.2c0,1.2-0.4,2.4-1,3.1l-5.8,9.6h5.1c1.1,0,1.7,0.9,1.7,1.7c0,0.9-0.6,1.7-1.7,1.7h-8.1
			c-1.6,0-2.3-1.2-1.5-2.6l7.4-12.2c0.3-0.5,0.5-1,0.5-1.4c0-1.3-1-2.3-2.2-2.3c-1.2,0-2.2,1-2.7,1.9C24.7,61.7,21.8,60,23,58
			c0.8-1.1,2.5-3.6,5.6-3.6C31.8,54.5,34.3,57,34.3,60.2z"/>
		<path fill="#FFFFFF" d="M50.5,71.5c0,0.8-0.6,1.7-1.7,1.7h-0.7v1.4c0,1.1-0.9,1.7-1.7,1.7c-0.8,0-1.7-0.6-1.7-1.7v-1.4h-6.3
			c-0.7,0-1.2-0.3-1.5-0.8c-0.3-0.5-0.3-1.1,0-1.7l8-15.3c1.1-2,4.1-0.4,3,1.6l-6.7,12.8h3.5v-3c0-1.2,0.9-1.7,1.7-1.7
			c0.8,0,1.7,0.5,1.7,1.7v3h0.7C50,69.8,50.5,70.7,50.5,71.5z"/>
	</g>
	<g>
		<path fill="#FFFFFF" d="M9.4,88.9c-3.1-7.4-4.7-15.1-4.7-23.2c0-8.1,1.6-15.8,4.7-23.1c3.1-7.3,7.4-13.6,12.7-18.9
			c5.3-5.3,11.6-9.5,18.9-12.7c7.3-3.1,15-4.7,23.1-4.7c8,0,15.7,1.6,23.1,4.7c7.4,3.1,13.7,7.4,19.1,12.7
			c5.3,5.3,9.6,11.6,12.7,18.9c3.2,7.3,4.7,15,4.7,23.1c0,8.1-1.6,15.8-4.7,23.2c-3.1,7.4-7.4,13.7-12.7,19
			c-5.3,5.3-11.7,9.6-19.1,12.7c-7.4,3.2-15.1,4.7-23.1,4.7c-8,0-15.7-1.6-23.1-4.7c-7.3-3.1-13.7-7.4-18.9-12.7
			C16.8,102.6,12.6,96.3,9.4,88.9z M11.9,65.8c0,7.1,1.4,13.9,4.1,20.4c2.8,6.5,6.5,12,11.1,16.7c4.7,4.7,10.2,8.4,16.7,11.2
			c6.4,2.8,13.2,4.2,20.3,4.2c9.5,0,18.2-2.3,26.3-7c8.1-4.7,14.4-11,19.1-19.1c4.7-8,7-16.8,7-26.3c0-9.4-2.3-18.1-7-26.1
			c-4.7-8-11.1-14.4-19.1-19c-8.1-4.7-16.8-7-26.3-7c-9.4,0-18.1,2.3-26.2,7c-8,4.7-14.4,11-19,19C14.3,47.6,11.9,56.4,11.9,65.8z
			 M60.6,65.8V31.5c0-1,0.3-1.9,1.1-2.6c0.7-0.7,1.5-1.1,2.5-1.1c1,0,1.8,0.4,2.6,1.1c0.7,0.7,1.1,1.6,1.1,2.6v33.7l18.4,18.4
			c0.7,0.7,1.1,1.5,1.1,2.5c0,1-0.4,1.9-1.1,2.6c-0.7,0.6-1.5,1-2.6,1c-1,0-1.9-0.3-2.5-1L61.7,69.2c-0.8-0.8-1.1-1.8-1-2.9
			c0-0.1,0-0.2-0.1-0.3C60.6,65.9,60.6,65.8,60.6,65.8z"/>
	</g>
</g>
</svg>
