<?xml version="1.0" encoding="utf-8"?>
<!-- Generator: Adobe Illustrator 18.1.1, SVG Export Plug-In . SVG Version: 6.00 Build 0)  -->
<!DOCTYPE svg PUBLIC "-//W3C//DTD SVG 1.1//EN" "http://www.w3.org/Graphics/SVG/1.1/DTD/svg11.dtd">
<svg version="1.1" id="Layer_4" xmlns="http://www.w3.org/2000/svg" xmlns:xlink="http://www.w3.org/1999/xlink" x="0px" y="0px"
	 viewBox="0 0 128.5 131.7" enable-background="new 0 0 128.5 131.7" xml:space="preserve">
<g>
	<g>
		<path fill="#FFFFFF" d="M42.4,42.1c0.2-0.6,0.6-0.9,1.3-0.9h14.5L63,27.5c0.2-0.6,0.6-0.9,1.3-0.9c0.6,0,1.1,0.3,1.3,0.9l4.8,13.7
			h14.5c0.3,0,0.5,0.1,0.8,0.2c0.2,0.2,0.4,0.4,0.4,0.6c0.2,0.6,0.1,1.1-0.4,1.5L74,52.6l4.2,13.8c0.1,0.3,0.1,0.4,0.1,0.5
			c0,0.4-0.1,0.7-0.4,0.9c-0.3,0.3-0.6,0.4-0.9,0.4c-0.3,0-0.5-0.1-0.8-0.2l-11.9-8.3l-11.9,8.3c-0.5,0.3-1,0.3-1.6,0
			c-0.5-0.4-0.6-0.9-0.5-1.5l4.2-14l-11.6-9.1C42.4,43.2,42.3,42.7,42.4,42.1z M47.5,43.8l9.3,7.3c0.2,0.2,0.4,0.4,0.4,0.6
			c0.1,0.3,0.1,0.5,0,0.8l-3.4,11.2l9.6-6.7c0.5-0.3,1-0.3,1.5,0l9.6,6.7l-3.4-11.2c-0.1-0.2-0.1-0.5,0-0.8c0.1-0.3,0.2-0.5,0.4-0.6
			l9.3-7.3H69.3c-0.6,0-1-0.3-1.2-0.9l-3.8-11.1l-3.9,11.1c-0.2,0.6-0.6,0.9-1.2,0.9H47.5z"/>
	</g>
	<g>
		<path fill="#FFFFFF" d="M3.4,20.9c0-0.2,0-0.3,0-0.4c0.1-0.8,0.5-1.5,1.1-2.1c0.6-0.6,1.3-0.8,2.2-0.8h12.5
			c-0.1-2-0.1-3.7-0.1-5.3c-0.1-0.9,0.2-1.7,0.9-2.5c0.6-0.6,1.5-1,2.5-1h83.4c0.9,0,1.7,0.3,2.3,1c0.7,0.6,1,1.4,1,2.5
			c0,0,0,0.3-0.1,0.8c0,0.5-0.1,1.1-0.1,1.9c0,0.8,0,1.7,0,2.5h12.9c0.9,0,1.6,0.3,2.2,0.8c0.6,0.5,1,1.2,1.1,2.1c0,0,0,0.2,0,0.4
			c0.1,1.2,0.1,2.4,0.1,3.6c0,0.1,0,0.2,0,0.3c0,1.2-0.1,3.1-0.2,5.7c-0.2,2.8-0.6,5.4-1.2,7.8c-0.6,2.4-1.5,5-2.8,7.8
			c-1.3,2.8-2.9,5.2-4.8,7.2c-2.9,2.9-6.3,4.9-10.2,5.9c-0.4,3.5-0.8,5.9-1.2,7.2c-2.2,8.8-6.7,16.2-13.6,22
			c-6.9,5.8-14.8,9.1-23.8,9.9v17.3c0,0.2,0,0.4-0.1,0.6h11.4c0.9,0,1.7,0.3,2.3,1c0.6,0.6,1,1.4,1,2.4c0,0.9-0.3,1.7-1,2.4
			c-0.6,0.6-1.4,1-2.3,1H49.9c-0.9,0-1.7-0.3-2.3-1c-0.6-0.6-1-1.4-1-2.4c0-0.9,0.3-1.7,1-2.4c0.6-0.6,1.4-1,2.3-1h10.9v-0.6V98.2
			c-9-0.8-16.9-4.1-23.8-9.9c-6.9-5.8-11.4-13.2-13.6-22c-0.6-2.2-1.1-4.7-1.4-7.3c-3.5-1-6.7-3-9.5-5.8c-2-2-3.6-4.4-4.9-7.2
			c-1.3-2.9-2.3-5.4-2.8-7.7c-0.6-2.3-1-4.9-1.2-7.9c-0.2-2.7-0.3-4.6-0.3-5.6C3.2,24,3.2,22.8,3.4,20.9z M9.9,24.3
			c0,0.4,0,0.7-0.1,1c0,2.1,0.1,4.2,0.4,6.3c0.2,2.5,0.9,5.4,2.1,8.8c1.2,3.4,2.8,6.1,4.8,8.2c1.4,1.4,2.7,2.4,4.1,3.1
			c-0.8-8.1-1.4-17.3-1.9-27.4H9.9z M25.8,15.6c0.9,27,2.2,43.3,3.9,49v0.1c2,7.9,6.1,14.4,12.5,19.3c6.4,5,13.7,7.5,21.9,7.5
			c8.2,0,15.4-2.5,21.8-7.5c6.4-5,10.5-11.4,12.4-19.3l0.1-0.1c0.9-3.2,1.7-9.8,2.4-19.7c0.7-9.9,1.2-19.7,1.5-29.3H25.8z
			 M106.9,51.9c1.5-0.7,3-1.8,4.5-3.4c2-2.1,3.6-4.8,4.8-8.2c1.2-3.4,1.9-6.3,2.1-8.8c0.2-2.1,0.3-4.2,0.3-6.3c0-0.4,0-0.7,0-1h-10
			C108.1,36.7,107.5,45.9,106.9,51.9z"/>
	</g>
</g>
</svg>
