<?xml version="1.0" encoding="utf-8"?>
<!-- Generator: Adobe Illustrator 18.1.1, SVG Export Plug-In . SVG Version: 6.00 Build 0)  -->
<!DOCTYPE svg PUBLIC "-//W3C//DTD SVG 1.1//EN" "http://www.w3.org/Graphics/SVG/1.1/DTD/svg11.dtd">
<svg version="1.1" id="Layer_3" xmlns="http://www.w3.org/2000/svg" xmlns:xlink="http://www.w3.org/1999/xlink" x="0px" y="0px"
	 viewBox="0 0 140 150" enable-background="new 0 0 140 150" xml:space="preserve">
<g>
	<g>
		<path fill="#58595B" d="M38,68.9c0,1.3-0.5,2.5-1,3.4l-6.2,10.3h5.4c1.2,0,1.8,0.9,1.8,1.8s-0.6,1.8-1.8,1.8h-8.6
			c-1.7,0-2.4-1.3-1.6-2.8l7.9-13.1c0.3-0.5,0.5-1.1,0.5-1.5c0-1.3-1.1-2.4-2.4-2.4c-1.3,0-2.3,1.1-2.9,2c-1.3,2-4.4,0.2-3.1-1.9
			c0.8-1.2,2.7-3.8,6-3.8C35.3,62.9,38,65.6,38,68.9z"/>
		<path fill="#58595B" d="M55.4,81c0,0.8-0.6,1.8-1.8,1.8h-0.7v1.5c0,1.2-1,1.8-1.8,1.8c-0.8,0-1.8-0.6-1.8-1.8v-1.5h-6.8
			c-0.8,0-1.3-0.4-1.6-0.8c-0.3-0.5-0.4-1.2,0-1.9l8.5-16.3c1.2-2.2,4.4-0.5,3.2,1.7l-7.1,13.7h3.7V76c0-1.3,1-1.8,1.8-1.8
			c0.8,0,1.8,0.6,1.8,1.8v3.2h0.7C54.8,79.2,55.4,80.2,55.4,81z"/>
	</g>
	<g>
		<path fill="#58595B" d="M11.5,99.6c-3.4-7.9-5-16.1-5-24.7c0-8.6,1.7-16.8,5-24.7C14.9,42.4,19.4,35.7,25,30
			c5.7-5.7,12.4-10.2,20.2-13.5c7.8-3.4,16-5,24.6-5c8.6,0,16.8,1.7,24.7,5c7.9,3.4,14.7,7.9,20.3,13.5c5.7,5.7,10.2,12.4,13.6,20.2
			c3.4,7.8,5.1,16.1,5.1,24.7c0,8.6-1.7,16.8-5.1,24.7c-3.4,7.9-7.9,14.6-13.6,20.3c-5.7,5.7-12.5,10.2-20.3,13.6
			c-7.9,3.4-16.1,5-24.7,5c-8.6,0-16.8-1.7-24.6-5c-7.8-3.4-14.6-7.9-20.2-13.6C19.4,114.2,14.9,107.5,11.5,99.6z M14.2,74.9
			c0,7.6,1.5,14.8,4.4,21.7c2.9,6.9,6.9,12.8,11.9,17.8c5,5,10.9,8.9,17.8,11.9c6.9,3,14.1,4.4,21.6,4.4c10.1,0,19.4-2.5,28-7.5
			c8.6-5,15.4-11.8,20.4-20.4c5-8.6,7.5-17.9,7.5-28c0-10-2.5-19.3-7.5-27.9c-5-8.6-11.8-15.3-20.4-20.3c-8.6-5-17.9-7.5-28-7.5
			c-10,0-19.3,2.5-27.9,7.5c-8.6,5-15.3,11.8-20.3,20.3C16.7,55.6,14.2,64.9,14.2,74.9z M66.1,74.9V38.4c0-1.1,0.4-2,1.1-2.7
			c0.8-0.8,1.6-1.1,2.6-1.1c1,0,2,0.4,2.8,1.1c0.8,0.8,1.2,1.7,1.2,2.7v36l19.6,19.6c0.8,0.7,1.2,1.6,1.2,2.6c0,1.1-0.4,2-1.2,2.8
			c-0.7,0.7-1.6,1-2.7,1c-1.1,0-2-0.4-2.7-1L67.3,78.6c-0.8-0.8-1.2-1.9-1-3.1c0-0.1,0-0.2-0.1-0.3C66.1,75,66.1,74.9,66.1,74.9z"/>
	</g>
</g>
</svg>
