<?xml version="1.0" encoding="utf-8"?>
<!-- Generator: Adobe Illustrator 18.1.1, SVG Export Plug-In . SVG Version: 6.00 Build 0)  -->
<!DOCTYPE svg PUBLIC "-//W3C//DTD SVG 1.1//EN" "http://www.w3.org/Graphics/SVG/1.1/DTD/svg11.dtd">
<svg version="1.1" id="Layer_4" xmlns="http://www.w3.org/2000/svg" xmlns:xlink="http://www.w3.org/1999/xlink" x="0px" y="0px"
	 viewBox="0 0 140 150" enable-background="new 0 0 140 150" xml:space="preserve">
<path fill="#58595B" d="M110.8,32.7c-11.1,0-19.4,9.1-19.4,20.2c0,9.6,7.6,17.7,16.6,19.7v37.5c0,0.6-0.8,1.2-0.8,1.8
	c-0.9,14.7-13.6,26.2-28.3,26.2c-15.2,0-27.7-11.9-28.2-27.1c0-0.4-0.2-4.4-0.2-9.4H61c13.8,0,25-13.6,25-30.4V36.5
	c0-12.6-6.3-23.5-15.4-28.1c-1.5-3.2-4.5-5.4-7.9-5.4c-5,0-9,4.6-9,10.2c0,5.6,4,10.2,9,10.2c3.2,0,6.3-1.9,7.9-4.8
	c4.2,3.9,7.3,10.4,7.3,17.8v34.8c0,12-8,21.4-17,21.4H33.4c-9,0-15.4-9.4-15.4-21.4V36.5c0-6.7,1.8-12.6,5.4-16.6
	c1.6,2.2,3.9,3.6,6.6,3.6c5,0,8.9-4.6,8.9-10.2c0-5.6-4.1-10.2-9-10.2c-3.9,0-7,2.9-8.2,6.8C13.9,15.2,9,25.1,9,36.5v34.8
	c0,16.8,10.7,30.4,24.4,30.4h8.3c0,5,0,9.3,0,9.6c0.6,19.9,16.8,35.5,36.7,35.5c19.3,0,35.3-15.1,36.5-34.4c0-0.8,0-1.5,0-2.3V72.6
	c10-2,15.9-10.1,15.9-19.7C130.9,41.7,122,32.7,110.8,32.7z M122.9,51.7c-0.1,0.6-0.3,1.1-0.4,1.6c-0.2,0.5-0.4,0.9-0.8,1.5
	c-0.3,0.5-0.6,0.9-0.9,1.3c-0.3,0.3-0.6,0.8-1.1,1.2c-0.5,0.5-0.9,0.9-1.2,1.1c-0.3,0.3-0.7,0.7-1.3,1.2c-0.9,0.8-1.6,1.4-2.1,1.9
	c-0.5,0.5-1.1,1.1-1.8,1.9c-0.7,0.8-1.3,1.6-1.9,2.4c-0.2,0.2-0.4,0.3-0.6,0.3c-0.2,0-0.4-0.1-0.6-0.3c-0.4-0.6-0.8-1.2-1.3-1.7
	c-0.5-0.5-1-1.1-1.6-1.7c-0.6-0.6-1-1-1.4-1.3c-0.3-0.3-0.8-0.7-1.5-1.3c-0.6-0.5-1.1-0.9-1.4-1.2c-0.3-0.3-0.7-0.7-1.2-1.2
	c-0.5-0.5-0.9-0.9-1.2-1.3c-0.3-0.3-0.6-0.8-0.9-1.3c-0.3-0.5-0.6-1-0.8-1.5c-0.2-0.5-0.3-1-0.4-1.6c-0.1-0.6-0.2-1.2-0.2-1.9
	c0-0.9,0.2-1.8,0.5-2.7c0.4-0.8,0.8-1.6,1.5-2.2c0.6-0.6,1.3-1.1,2.2-1.4c0.8-0.4,1.7-0.5,2.7-0.5c1.1,0,2.1,0.3,3.1,0.7
	c1,0.5,1.8,1.2,2.4,2c0.6-0.9,1.4-1.6,2.4-2c1-0.5,2-0.7,3.1-0.7c0.9,0,1.8,0.2,2.7,0.5c0.8,0.4,1.6,0.8,2.2,1.4
	c0.6,0.6,1.1,1.3,1.5,2.2c0.4,0.8,0.5,1.7,0.5,2.7C123.1,50.5,123,51.1,122.9,51.7z"/>
</svg>
