<?xml version="1.0" encoding="utf-8"?>
<!-- Generator: Adobe Illustrator 18.1.1, SVG Export Plug-In . SVG Version: 6.00 Build 0)  -->
<!DOCTYPE svg PUBLIC "-//W3C//DTD SVG 1.1//EN" "http://www.w3.org/Graphics/SVG/1.1/DTD/svg11.dtd">
<svg version="1.1" id="Layer_2" xmlns="http://www.w3.org/2000/svg" xmlns:xlink="http://www.w3.org/1999/xlink" x="0px" y="0px"
	 viewBox="0 0 140 150" enable-background="new 0 0 140 150" xml:space="preserve">
<g>
	<path fill="#58595B" d="M2.6,79c0-1.1,0.4-2,1.2-2.7l63.5-63.5c0.8-0.8,1.7-1.2,2.8-1.2c0.9,0,1.8,0.4,2.6,1.2l25.2,25.4V25
		c0-1.1,0.4-2,1.1-2.8c0.7-0.8,1.6-1.1,2.7-1.1c1.1,0,2,0.4,2.8,1.1c0.8,0.8,1.2,1.7,1.2,2.8v21l30.7,30.8c0.7,0.8,1.1,1.7,1.1,2.8
		c0,1.1-0.4,2-1.1,2.7c-0.8,0.7-1.7,1-2.8,1c-1.2,0-2.1-0.3-2.8-1L70.1,21L9.2,81.7c-0.7,0.8-1.6,1.2-2.7,1.2c-1.1,0-2-0.4-2.7-1.2
		C3,81,2.6,80.1,2.6,79z M20.9,134.6V79.5c0-1,0.4-1.9,1.1-2.6c0.7-0.7,1.6-1.1,2.6-1.1c1.1,0,2,0.4,2.7,1.1
		c0.7,0.7,1.1,1.6,1.1,2.6v51.3H56v-21.7c0-1,0.4-1.9,1.2-2.7c0.8-0.8,1.7-1.1,2.8-1.1h19.9c1,0,1.9,0.4,2.6,1.1
		c0.7,0.8,1.1,1.6,1.1,2.7v21.7h27.6V77.7c0-1.1,0.4-2,1.1-2.7c0.8-0.8,1.7-1.1,2.7-1.1c1,0,1.9,0.4,2.6,1.1
		c0.7,0.8,1.1,1.7,1.1,2.8v56.9c0,1-0.4,1.9-1.1,2.7c-0.7,0.7-1.6,1.1-2.6,1.1H80c-1.1,0-2-0.4-2.8-1.1c-0.8-0.7-1.1-1.6-1.1-2.6
		v-21.6H63.9v21.6c0,1-0.4,1.9-1.1,2.6c-0.7,0.7-1.6,1.1-2.7,1.1H24.7c-1,0-1.9-0.4-2.7-1.1C21.3,136.5,20.9,135.6,20.9,134.6z"/>
</g>
</svg>
