<?xml version="1.0" encoding="utf-8"?>
<!-- Generator: Adobe Illustrator 18.1.1, SVG Export Plug-In . SVG Version: 6.00 Build 0)  -->
<!DOCTYPE svg PUBLIC "-//W3C//DTD SVG 1.1//EN" "http://www.w3.org/Graphics/SVG/1.1/DTD/svg11.dtd">
<svg version="1.1" id="Layer_1" xmlns="http://www.w3.org/2000/svg" xmlns:xlink="http://www.w3.org/1999/xlink" x="0px" y="0px"
	 viewBox="0 0 140 150" enable-background="new 0 0 140 150" xml:space="preserve">
<g>
	<path fill="#59595C" d="M17.6,114.7V35.3c0-5.7,2.1-10.9,6.4-15.8c4.3-4.8,10.2-8.6,17.8-11.5c7.6-2.9,16.1-4.4,25.4-4.7h0.2h2.4
		h4.1c9.1,0.4,17.4,2.1,24.8,5c7.4,2.9,13.2,6.7,17.5,11.5c4.2,4.8,6.3,9.9,6.3,15.5v79.4c0,4.5-1.4,8.7-4.2,12.7
		c-2.8,4-6.8,7.5-12,10.6c-9.9,5.7-22,8.6-36.3,8.6h-0.3c-13.9,0-25.9-2.9-36-8.8c-5.2-3-9.2-6.4-12-10.4
		C18.9,123.5,17.6,119.2,17.6,114.7z M25.4,114.7c0,3,1.1,5.9,3.2,8.7c2.1,2.8,5.2,5.4,9.1,7.8c8.9,5.1,19.6,7.7,32.1,7.7H70
		c12.6,0,23.4-2.6,32.3-7.7c8.2-4.9,12.3-10.3,12.3-16.5V35.3c0-4.1-1.8-7.9-5.5-11.4c-3.6-3.6-8.6-6.5-15-8.8
		c-6.3-2.3-13.2-3.6-20.6-3.9h-3.6h-2.2C60,11.4,53,12.7,46.5,14.9c-6.5,2.2-11.6,5.2-15.4,8.8c-3.8,3.6-5.7,7.5-5.7,11.6V114.7z
		 M31.3,97.9V40.2c0-4.6,1.6-8.5,4.8-11.7c3.2-3.2,7.1-4.9,11.6-4.9h44.5c4.5,0,8.3,1.6,11.5,4.9c3.2,3.2,4.7,7.2,4.7,11.7v57.7
		c0,4.6-1.6,8.5-4.7,11.8c-3.2,3.3-7,4.9-11.5,4.9H47.7c-4.5,0-8.4-1.6-11.6-4.9C32.9,106.5,31.3,102.5,31.3,97.9z M39.1,97.9
		c0,2.4,0.8,4.5,2.6,6.2c1.7,1.7,3.7,2.6,6.1,2.6h44.3c2.4,0,4.4-0.9,6-2.6c1.7-1.7,2.5-3.8,2.5-6.2V40.3c0-2.4-0.8-4.5-2.5-6.2
		c-1.7-1.7-3.7-2.6-6-2.6H47.8c-2.4,0-4.4,0.9-6.1,2.6c-1.7,1.7-2.6,3.8-2.6,6.2V97.9z M65.6,131.1c-1.2-1.3-1.8-2.9-1.8-4.8
		c0-1.9,0.6-3.5,1.8-4.8c1.2-1.3,2.6-2,4.3-2c1.6,0,3,0.7,4.3,2c1.2,1.3,1.8,2.9,1.8,4.8c0,1.8-0.6,3.4-1.8,4.8
		c-1.2,1.3-2.6,2-4.3,2C68.2,133.1,66.8,132.4,65.6,131.1z"/>
</g>
</svg>
