<?xml version="1.0" encoding="utf-8"?>
<!-- Generator: Adobe Illustrator 18.1.1, SVG Export Plug-In . SVG Version: 6.00 Build 0)  -->
<!DOCTYPE svg PUBLIC "-//W3C//DTD SVG 1.1//EN" "http://www.w3.org/Graphics/SVG/1.1/DTD/svg11.dtd">
<svg version="1.1" id="Layer_1" xmlns="http://www.w3.org/2000/svg" xmlns:xlink="http://www.w3.org/1999/xlink" x="0px" y="0px"
	 viewBox="0 0 50 50" enable-background="new 0 0 50 50" xml:space="preserve">
<g id="Layer_1_1_">
	<g>
		<g>
			<path fill="#30AF51" d="M26.1,47c-0.5,0-1-0.3-1.2-0.7c-0.3-0.4-0.3-0.9-0.1-1.4c0.3-0.6,0.4-1.3,0.4-1.9c0-2.6-2.1-4.6-4.6-4.6
				c-2.6,0-4.6,2.1-4.6,4.6c0,0.6,0.1,1.2,0.3,1.7v0l0,0c0.1,0.2,0.2,0.5,0.2,0.7c0,0.8-0.6,1.4-1.4,1.5h-0.4l0,0H4.7
				c-0.8,0-1.5-0.7-1.5-1.5V34.8c0-0.5,0.3-1,0.7-1.2c0.2-0.2,0.5-0.2,0.8-0.2c0.2,0,0.4,0,0.6,0.1c0.6,0.3,1.2,0.4,1.9,0.4
				c2.6,0,4.6-2.1,4.6-4.6c0-2.6-2.1-4.6-4.6-4.6c-0.6,0-1.3,0.1-1.9,0.4c-0.2,0.1-0.4,0.1-0.6,0.1c-0.3,0-0.6-0.1-0.8-0.2
				c-0.4-0.3-0.7-0.7-0.7-1.2V13c0-0.8,0.7-1.5,1.5-1.5h8.6l0-0.7c0-0.1,0-0.2,0-0.3c0-4.2,3.4-7.6,7.6-7.6s7.6,3.4,7.6,7.6
				c0,0.1,0,0.2,0,0.3l0,0.7h8.5c0.8,0,1.5,0.7,1.5,1.5v8.6h0.8c4.2,0,7.6,3.4,7.6,7.6s-3.4,7.6-7.6,7.6h-0.8v8.7
				c0,0.4-0.2,0.8-0.4,1c-0.3,0.3-0.6,0.4-1,0.4L26.1,47L26.1,47z M20.6,35.3c4.2,0,7.6,3.4,7.6,7.6c0,0.1,0,0.2,0,0.3l0,0.7h7.3
				v-9.1c0-0.5,0.2-0.9,0.6-1.2c0.2-0.2,0.5-0.3,0.8-0.3c0.2,0,0.4,0,0.5,0.1c0.6,0.2,1.1,0.3,1.7,0.3c2.6,0,4.6-2.1,4.6-4.6
				c0-2.6-2.1-4.6-4.6-4.6c-0.6,0-1.1,0.1-1.7,0.3C37.3,25,37.1,25,36.9,25c-0.3,0-0.6-0.1-0.8-0.3c-0.4-0.3-0.6-0.7-0.6-1.2v-9h-9
				c-0.5,0-1-0.3-1.2-0.7c-0.3-0.4-0.3-0.9-0.1-1.4c0.3-0.6,0.4-1.2,0.4-1.9C25.5,8,23.4,6,20.9,6c-2.6,0-4.6,2.1-4.6,4.6
				c0,0.6,0.1,1.3,0.4,1.9c0.2,0.5,0.2,1-0.1,1.4c-0.3,0.4-0.7,0.7-1.2,0.7H6.2v7.1l0.7,0c0.1,0,0.2,0,0.3,0c4.2,0,7.6,3.4,7.6,7.6
				s-3.4,7.6-7.6,7.6c0,0,0,0,0,0c-0.1,0-0.2,0-0.3,0l-0.7,0V44H13l0-0.7c0-0.1,0-0.2,0-0.4C13,38.7,16.4,35.3,20.6,35.3z"/>
		</g>
	</g>
</g>
</svg>
