<?xml version="1.0" encoding="utf-8"?>
<!-- Generator: Adobe Illustrator 18.1.1, SVG Export Plug-In . SVG Version: 6.00 Build 0)  -->
<!DOCTYPE svg PUBLIC "-//W3C//DTD SVG 1.1//EN" "http://www.w3.org/Graphics/SVG/1.1/DTD/svg11.dtd">
<svg version="1.1" xmlns="http://www.w3.org/2000/svg" xmlns:xlink="http://www.w3.org/1999/xlink" x="0px" y="0px"
	 viewBox="0 0 148.6 136.5" enable-background="new 0 0 148.6 136.5" xml:space="preserve">
<g id="Layer_5">
</g>
<g id="Layer_1">
	<g>
		<g>
			<path fill="#FFFFFF" d="M77.7,133.6c-1.5,0-2.9-0.8-3.7-2c-0.8-1.3-0.9-2.8-0.3-4.2c0.8-1.9,1.3-3.8,1.3-5.7
				c0-7.6-6.2-13.7-13.7-13.7c-7.6,0-13.7,6.2-13.7,13.7c0,1.8,0.4,3.5,1,5.2l0,0.1l0.1,0.1c0.4,0.7,0.6,1.4,0.6,2.2
				c0,2.4-1.9,4.3-4.2,4.4l-1.1,0l0,0H13.9c-2.4,0-4.4-2-4.4-4.4V97.3c0-1.5,0.8-2.9,2-3.7c0.7-0.5,1.6-0.7,2.4-0.7
				c0.6,0,1.2,0.1,1.8,0.4c1.8,0.8,3.6,1.2,5.6,1.2c7.6,0,13.7-6.2,13.7-13.7c0-7.6-6.2-13.7-13.7-13.7c-1.9,0-3.8,0.4-5.6,1.2
				c-0.6,0.2-1.2,0.4-1.8,0.4c-0.9,0-1.7-0.2-2.4-0.7c-1.3-0.8-2-2.2-2-3.7V32.7c0-2.4,2-4.4,4.4-4.4h25.7l-0.1-2c0-0.3,0-0.5,0-0.8
				C39.6,13,49.7,2.9,62.1,2.9c12.4,0,22.5,10.1,22.5,22.5c0,0.3,0,0.5,0,0.8l-0.1,2h25.2c2.4,0,4.4,2,4.4,4.4v25.5l2.3,0
				c12.4,0,22.5,10.1,22.5,22.5c0,12.4-10.1,22.5-22.5,22.5l-2.3,0v25.9c0,1.2-0.5,2.3-1.3,3.1c-0.8,0.8-1.9,1.3-3.1,1.3H77.7z
				 M61.2,99c12.4,0,22.5,10.1,22.5,22.6c0,0.3,0,0.6,0,0.9l-0.1,2.2h21.7V97.6c0-1.5,0.7-2.8,1.9-3.7c0.7-0.5,1.6-0.8,2.5-0.8
				c0.6,0,1.1,0.1,1.6,0.3c1.7,0.7,3.4,1,5.1,1c7.6,0,13.7-6.2,13.7-13.7c0-7.6-6.2-13.7-13.7-13.7c-1.7,0-3.4,0.3-5.1,1
				c-0.5,0.2-1.1,0.3-1.6,0.3c-0.9,0-1.7-0.3-2.5-0.8c-1.2-0.8-1.9-2.2-1.9-3.7V37.1H78.7c-1.5,0-2.9-0.8-3.7-2
				c-0.8-1.2-0.9-2.8-0.4-4.2c0.8-1.7,1.1-3.6,1.1-5.5c0-7.6-6.2-13.7-13.7-13.7c-7.6,0-13.7,6.2-13.7,13.7c0,1.9,0.4,3.8,1.2,5.5
				c0.6,1.4,0.5,2.9-0.4,4.2c-0.8,1.2-2.2,2-3.7,2H18.4v21.2l2-0.1c0.3,0,0.6,0,0.9,0c12.4,0,22.5,10.1,22.5,22.5
				c0,12.4-10.1,22.5-22.5,22.5c0,0,0,0-0.1,0c-0.3,0-0.6,0-0.9,0l-2-0.1v21.5h20.4l-0.1-2.1c0-0.4,0-0.7,0-1.1
				C38.7,109.1,48.8,99,61.2,99z"/>
		</g>
	</g>
</g>
<g id="Layer_2">
</g>
<g id="Layer_3">
</g>
<g id="Layer_4">
</g>
</svg>
