<?xml version="1.0" encoding="utf-8"?>
<!-- Generator: Adobe Illustrator 18.1.1, SVG Export Plug-In . SVG Version: 6.00 Build 0)  -->
<!DOCTYPE svg PUBLIC "-//W3C//DTD SVG 1.1//EN" "http://www.w3.org/Graphics/SVG/1.1/DTD/svg11.dtd">
<svg version="1.1" id="Layer_1" xmlns="http://www.w3.org/2000/svg" xmlns:xlink="http://www.w3.org/1999/xlink" x="0px" y="0px"
	 viewBox="0 0 50 50" enable-background="new 0 0 50 50" xml:space="preserve">
<path fill="#DCA900" d="M26.4,31.1l7.2-7.2c0.6-0.6,0.6-1.7,0-2.3c-0.6-0.6-1.7-0.6-2.3,0l-6,6l-6-6c-0.6-0.6-1.7-0.6-2.3,0
	c-0.3,0.3-0.5,0.7-0.5,1.2c0,0.4,0.2,0.8,0.5,1.2l7.2,7.2C24.7,31.7,25.7,31.7,26.4,31.1z"/>
<g>
	<path fill="#DCA900" d="M25,44.2c-10.8,0-19.6-8.8-19.6-19.6C5.4,13.9,14.2,5.1,25,5.1s19.6,8.8,19.6,19.6S35.8,44.2,25,44.2z
		 M25,8.1c-9.1,0-16.6,7.4-16.6,16.6c0,9.1,7.4,16.6,16.6,16.6s16.6-7.4,16.6-16.6S34.1,8.1,25,8.1z"/>
</g>
</svg>
