<?xml version="1.0" encoding="utf-8"?>
<!-- Generator: Adobe Illustrator 18.1.1, SVG Export Plug-In . SVG Version: 6.00 Build 0)  -->
<!DOCTYPE svg PUBLIC "-//W3C//DTD SVG 1.1//EN" "http://www.w3.org/Graphics/SVG/1.1/DTD/svg11.dtd">
<svg version="1.1" id="Layer_3" xmlns="http://www.w3.org/2000/svg" xmlns:xlink="http://www.w3.org/1999/xlink" x="0px" y="0px"
	 viewBox="0 0 50 50" enable-background="new 0 0 50 50" xml:space="preserve">
<g>
	<path fill="#30AF51" d="M1,26.4c0-0.4,0.1-0.7,0.4-1L24,2.9c0.3-0.3,0.6-0.4,1-0.4c0.3,0,0.6,0.1,0.9,0.4l9,9.1V7.2
		c0-0.4,0.1-0.7,0.4-1c0.3-0.3,0.6-0.4,1-0.4s0.7,0.1,1,0.4s0.4,0.6,0.4,1v7.5l10.9,11c0.3,0.3,0.4,0.6,0.4,1s-0.1,0.7-0.4,1
		c-0.3,0.2-0.6,0.4-1,0.4s-0.7-0.1-1-0.4L25,5.8L3.3,27.4c-0.3,0.3-0.6,0.4-1,0.4s-0.7-0.1-1-0.4C1.1,27.1,1,26.8,1,26.4z M7.5,46.2
		V26.6c0-0.4,0.1-0.7,0.4-0.9c0.3-0.3,0.6-0.4,0.9-0.4c0.4,0,0.7,0.1,1,0.4s0.4,0.6,0.4,0.9v18.3H20v-7.7c0-0.4,0.1-0.7,0.4-1
		s0.6-0.4,1-0.4h7.1c0.4,0,0.7,0.1,0.9,0.4c0.3,0.3,0.4,0.6,0.4,1v7.7h9.8V26c0-0.4,0.1-0.7,0.4-1c0.3-0.3,0.6-0.4,1-0.4
		s0.7,0.1,0.9,0.4c0.3,0.3,0.4,0.6,0.4,1v20.3c0,0.4-0.1,0.7-0.4,0.9c-0.3,0.3-0.6,0.4-0.9,0.4H28.6c-0.4,0-0.7-0.1-1-0.4
		c-0.3-0.3-0.4-0.6-0.4-0.9v-7.7h-4.3v7.7c0,0.4-0.1,0.7-0.4,0.9c-0.3,0.3-0.6,0.4-0.9,0.4H8.9c-0.4,0-0.7-0.1-0.9-0.4
		C7.7,46.9,7.5,46.6,7.5,46.2z"/>
</g>
<g>
	<path fill="#30AF51" d="M15.6,22.1c0,0.5,0.4,0.9,0.9,0.9h0.1c0.1,0.8,0.4,1.6,0.9,2.2l0,0c-0.4,0.4-0.4,0.9,0,1.3
		c0.2,0.2,0.4,0.3,0.7,0.3c0.2,0,0.5-0.1,0.7-0.3l0,0c0.7,0.5,1.4,0.8,2.2,0.9v0.1c0,0.5,0.4,0.9,0.9,0.9s0.9-0.4,0.9-0.9v-0.1
		c0.8-0.1,1.6-0.4,2.2-0.9l0,0c0.2,0.2,0.4,0.3,0.7,0.3c0.2,0,0.5-0.1,0.7-0.3c0.4-0.4,0.4-0.9,0-1.3l0,0c0.5-0.7,0.8-1.4,0.9-2.2
		h0.1c0.5,0,0.9-0.4,0.9-0.9s-0.4-0.9-0.9-0.9h-0.1c-0.1-0.8-0.4-1.5-0.9-2.2l0,0c0.4-0.4,0.4-0.9,0-1.3s-0.9-0.4-1.3,0l0,0
		c-0.7-0.5-1.4-0.8-2.2-0.9v-0.1c0-0.5-0.4-0.9-0.9-0.9s-0.9,0.4-0.9,0.9v0.1c-0.8,0.1-1.6,0.5-2.2,0.9l0,0c-0.4-0.4-0.9-0.4-1.3,0
		s-0.4,0.9,0,1.3l0,0c-0.5,0.7-0.8,1.4-0.9,2.2h-0.1C16,21.2,15.6,21.6,15.6,22.1z M18.4,22.1c0-1,0.4-1.9,1.1-2.5
		c0.7-0.7,1.6-1.1,2.5-1.1c1,0,1.9,0.4,2.5,1.1c1.4,1.4,1.4,3.7,0,5.1c-0.7,0.7-1.6,1.1-2.5,1.1c-1,0-1.9-0.4-2.5-1.1
		C18.7,23.9,18.4,23,18.4,22.1z"/>
	<path fill="#30AF51" d="M26.4,29.4h0.1c0,0.3,0,0.7,0,1h-0.1c-0.5,0.2-0.7,0.7-0.5,1.2c0.1,0.4,0.5,0.6,0.9,0.6
		c0.1,0,0.2,0,0.4-0.1h0.1c0.2,0.3,0.4,0.5,0.7,0.7v0.1c-0.2,0.5,0,1,0.5,1.2c0.1,0,0.2,0.1,0.4,0.1c0.4,0,0.7-0.2,0.9-0.6v-0.1
		c0.2,0,0.3,0,0.5,0s0.3,0,0.5,0v0.1c0.1,0.4,0.5,0.6,0.9,0.6c0.1,0,0.2,0,0.4-0.1c0.5-0.2,0.7-0.7,0.5-1.2v-0.1
		c0.3-0.2,0.5-0.4,0.7-0.7h0.1c0.1,0,0.2,0.1,0.4,0.1c0.4,0,0.7-0.2,0.9-0.6c0.2-0.5,0-1-0.5-1.2h-0.1c0-0.3,0-0.7,0-1h0.1
		c0.5-0.2,0.7-0.7,0.5-1.2s-0.7-0.7-1.2-0.5h-0.1c-0.2-0.3-0.4-0.5-0.7-0.7v-0.1c0.2-0.5,0-1-0.5-1.2s-1,0-1.2,0.5v0.1
		c-0.2,0-0.3,0-0.5,0s-0.3,0-0.5,0v-0.1c-0.2-0.5-0.7-0.7-1.2-0.5s-0.7,0.7-0.5,1.2V27c-0.3,0.2-0.5,0.4-0.7,0.7h-0.1
		c-0.5-0.2-1,0-1.2,0.5C25.7,28.7,25.9,29.3,26.4,29.4z M28.2,29.2c0.3-0.8,1.1-1.3,1.9-1.3c0.3,0,0.5,0.1,0.8,0.2
		c0.5,0.2,0.9,0.6,1.1,1.1s0.2,1.1,0,1.6c-0.3,0.8-1.1,1.3-1.9,1.3c-0.3,0-0.5-0.1-0.8-0.2C28.3,31.4,27.8,30.2,28.2,29.2z"/>
</g>
</svg>
