<?xml version="1.0" encoding="utf-8"?>
<!-- Generator: Adobe Illustrator 18.1.1, SVG Export Plug-In . SVG Version: 6.00 Build 0)  -->
<!DOCTYPE svg PUBLIC "-//W3C//DTD SVG 1.1//EN" "http://www.w3.org/Graphics/SVG/1.1/DTD/svg11.dtd">
<svg version="1.1" id="Layer_1" xmlns="http://www.w3.org/2000/svg" xmlns:xlink="http://www.w3.org/1999/xlink" x="0px" y="0px"
	 viewBox="0 0 50 50" enable-background="new 0 0 50 50" xml:space="preserve">
<g id="Layer_2">
	<g>
		<g>
			<path fill="#30AF51" d="M1.8,26.6c0-0.4,0.1-0.7,0.4-0.9L24.1,3.9c0.3-0.3,0.6-0.4,0.9-0.4s0.6,0.1,0.9,0.4l8.7,8.7V8.1
				c0-0.4,0.1-0.7,0.4-0.9c0.3-0.3,0.6-0.4,0.9-0.4c0.4,0,0.7,0.1,1,0.4c0.3,0.3,0.4,0.6,0.4,0.9v7.2l10.6,10.6
				c0.2,0.3,0.4,0.6,0.4,1s-0.1,0.7-0.4,0.9c-0.3,0.2-0.6,0.3-0.9,0.3c-0.4,0-0.7-0.1-0.9-0.3L25,6.7l-21,20.9
				C3.8,27.8,3.5,28,3.2,28s-0.7-0.1-0.9-0.4C2,27.3,1.8,27,1.8,26.6z M8.1,45.8v-19c0-0.4,0.1-0.7,0.4-0.9s0.5-0.4,0.9-0.4
				c0.4,0,0.7,0.1,0.9,0.4c0.3,0.2,0.4,0.5,0.4,0.9v17.7h9.5V37c0-0.4,0.1-0.7,0.4-0.9c0.3-0.3,0.6-0.4,1-0.4h6.9
				c0.4,0,0.7,0.1,0.9,0.4c0.2,0.3,0.4,0.6,0.4,0.9v7.5h9.5V26.2c0-0.4,0.1-0.7,0.4-0.9c0.3-0.3,0.6-0.4,0.9-0.4
				c0.3,0,0.6,0.1,0.9,0.4c0.2,0.3,0.4,0.6,0.4,0.9v19.6c0,0.4-0.1,0.7-0.4,0.9c-0.2,0.3-0.5,0.4-0.9,0.4H28.4
				c-0.4,0-0.7-0.1-0.9-0.4c-0.3-0.2-0.4-0.5-0.4-0.9v-7.4h-4.2v7.4c0,0.4-0.1,0.7-0.4,0.9c-0.2,0.3-0.5,0.4-0.9,0.4H9.4
				c-0.4,0-0.7-0.1-0.9-0.4C8.2,46.5,8.1,46.1,8.1,45.8z"/>
		</g>
		<path fill="#30AF51" d="M30.3,24.6H26v-4.2c0-0.6-0.5-1.2-1.2-1.2s-1.2,0.5-1.2,1.2v4.2h-3.7c-0.6,0-1.2,0.5-1.2,1.2
			c0,0.6,0.5,1.2,1.2,1.2h3.7v3.9c0,0.6,0.5,1.2,1.2,1.2s1.2-0.5,1.2-1.2v-3.9h4.3c0.6,0,1.2-0.5,1.2-1.2
			C31.5,25.1,31,24.6,30.3,24.6z"/>
	</g>
</g>
</svg>
