<?xml version="1.0" encoding="utf-8"?>
<!-- Generator: Adobe Illustrator 18.1.1, SVG Export Plug-In . SVG Version: 6.00 Build 0)  -->
<!DOCTYPE svg PUBLIC "-//W3C//DTD SVG 1.1//EN" "http://www.w3.org/Graphics/SVG/1.1/DTD/svg11.dtd">
<svg version="1.1" xmlns="http://www.w3.org/2000/svg" xmlns:xlink="http://www.w3.org/1999/xlink" x="0px" y="0px"
	 viewBox="0 0 148.6 136.5" enable-background="new 0 0 148.6 136.5" xml:space="preserve">
<g id="Layer_5">
</g>
<g id="Layer_1">
</g>
<g id="Layer_2">
	<g>
		<g>
			<path fill="#FFFFFF" d="M5.4,73.1c0-1.1,0.4-2,1.2-2.7L71.5,5.5c0.8-0.8,1.8-1.2,2.8-1.2c1,0,1.8,0.4,2.7,1.2l25.8,26V17.9
				c0-1.1,0.4-2,1.1-2.8c0.8-0.8,1.7-1.2,2.8-1.2c1.1,0,2.1,0.4,2.9,1.2c0.8,0.8,1.2,1.7,1.2,2.8v21.5l31.4,31.5
				c0.7,0.8,1.1,1.8,1.1,2.9c0,1.1-0.4,2-1.1,2.7c-0.8,0.7-1.8,1-2.8,1c-1.2,0-2.1-0.3-2.8-1L74.4,13.8L12.1,75.9
				c-0.7,0.8-1.6,1.2-2.7,1.2c-1.1,0-2-0.4-2.7-1.2C5.8,75.2,5.4,74.2,5.4,73.1z M24.1,130V73.6c0-1.1,0.4-2,1.1-2.7
				c0.7-0.7,1.6-1.1,2.7-1.1c1.1,0,2,0.4,2.8,1.1c0.8,0.7,1.1,1.6,1.1,2.7v52.5H60v-22.2c0-1.1,0.4-2,1.2-2.8
				c0.8-0.8,1.7-1.2,2.9-1.2h20.4c1.1,0,2,0.4,2.7,1.2c0.7,0.8,1.1,1.7,1.1,2.8v22.2h28.2V71.8c0-1.1,0.4-2,1.1-2.8
				c0.8-0.8,1.7-1.2,2.8-1.2c1,0,1.9,0.4,2.7,1.2c0.7,0.8,1.1,1.7,1.1,2.8V130c0,1.1-0.4,2-1.1,2.7c-0.7,0.8-1.6,1.1-2.7,1.1H84.5
				c-1.1,0-2-0.4-2.8-1.1c-0.8-0.7-1.2-1.6-1.2-2.7v-22H68v22c0,1.1-0.4,2-1.1,2.7c-0.7,0.8-1.6,1.1-2.7,1.1H28
				c-1.1,0-2-0.4-2.7-1.1C24.5,132,24.1,131,24.1,130z"/>
		</g>
		<path fill="#FFFFFF" d="M90.2,67H77.3V54.5c0-1.9-1.6-3.5-3.5-3.5s-3.5,1.6-3.5,3.5V67H59.2c-1.9,0-3.5,1.6-3.5,3.5
			s1.6,3.5,3.5,3.5h11.1v11.5c0,1.9,1.6,3.5,3.5,3.5s3.5-1.6,3.5-3.5V74h12.9c1.9,0,3.5-1.6,3.5-3.5S92.1,67,90.2,67z"/>
	</g>
</g>
<g id="Layer_3">
</g>
<g id="Layer_4">
</g>
</svg>
