<?xml version="1.0" encoding="utf-8"?>
<!-- Generator: Adobe Illustrator 18.1.1, SVG Export Plug-In . SVG Version: 6.00 Build 0)  -->
<!DOCTYPE svg PUBLIC "-//W3C//DTD SVG 1.1//EN" "http://www.w3.org/Graphics/SVG/1.1/DTD/svg11.dtd">
<svg version="1.1" id="Layer_1" xmlns="http://www.w3.org/2000/svg" xmlns:xlink="http://www.w3.org/1999/xlink" x="0px" y="0px"
	 viewBox="0 0 50 50" enable-background="new 0 0 50 50" xml:space="preserve">
<g>
	<path fill="#30AF51" d="M25,24.8c-2.2,0-4.1,0.8-5.7,2.4S17,30.6,17,32.8s0.8,4.1,2.3,5.7c1.6,1.6,3.4,2.4,5.7,2.4
		c2.2,0,4.1-0.8,5.6-2.4c1.6-1.6,2.4-3.5,2.4-5.7s-0.8-4.1-2.3-5.6C29.1,25.6,27.2,24.8,25,24.8z M30.5,32.4
		c-0.1,0.2-0.1,0.5-0.2,0.7s-0.2,0.4-0.3,0.6c-0.1,0.2-0.3,0.4-0.4,0.6c-0.1,0.1-0.3,0.3-0.5,0.5s-0.4,0.4-0.5,0.5s-0.3,0.3-0.6,0.5
		c-0.4,0.3-0.7,0.6-0.9,0.8c-0.2,0.2-0.5,0.5-0.8,0.8s-0.6,0.7-0.8,1c-0.1,0.1-0.2,0.1-0.3,0.1c-0.1,0-0.2,0-0.3-0.1
		c-0.2-0.3-0.4-0.5-0.6-0.7s-0.4-0.5-0.7-0.7c-0.3-0.2-0.4-0.4-0.6-0.6c-0.1-0.1-0.4-0.3-0.6-0.6c-0.3-0.2-0.5-0.4-0.6-0.5
		s-0.3-0.3-0.5-0.5s-0.4-0.4-0.5-0.5s-0.2-0.3-0.4-0.6c-0.1-0.2-0.3-0.4-0.3-0.6c-0.1-0.2-0.1-0.4-0.2-0.7s-0.1-0.5-0.1-0.8
		c0-0.4,0.1-0.8,0.2-1.1c0.2-0.4,0.4-0.7,0.6-0.9c0.3-0.3,0.6-0.5,0.9-0.6c0.4-0.2,0.7-0.2,1.1-0.2c0.5,0,0.9,0.1,1.3,0.3
		c0.4,0.2,0.8,0.5,1,0.9c0.3-0.4,0.6-0.7,1-0.9c0.4-0.2,0.9-0.3,1.3-0.3s0.8,0.1,1.1,0.2c0.4,0.2,0.7,0.4,0.9,0.6
		c0.3,0.3,0.5,0.6,0.6,0.9c0.2,0.4,0.2,0.7,0.2,1.1C30.6,31.9,30.5,32.1,30.5,32.4z"/>
	<path fill="#30AF51" d="M49.3,16.8V16c0-1.9-0.7-3.6-2.1-5.2c-1.5-1.5-3.4-2.7-5.8-3.6c-2.4-0.9-5.1-1.6-8-2.1s-5.9-0.7-9-0.7
		c-4.9,0-9.2,0.5-13,1.6C7.6,7,4.8,8.5,3,10.4c-1.7,1.7-2.5,3.5-2.4,5.6c0,0.1,0,0.2,0,0.4c0,0.2,0,0.3,0,0.4c0,0.8,0,1.4,0,1.9
		s0.1,1.1,0.3,1.7c0.2,0.7,0.5,1.3,1,1.7c0.9,0.9,2.2,1.4,4,1.4c0.5,0,0.9,0,1.2,0c1.2-0.1,2.1-0.3,3-0.6c0.8-0.3,1.4-0.6,1.9-1
		s0.8-0.8,1-1.4s0.3-1.1,0.4-1.5c0.1-0.5,0-1.1,0-1.8v-0.6c0-0.2,0.2-0.4,0.4-0.6c0.7-0.7,2.1-1.3,4.2-1.7s4.5-0.7,7.1-0.7
		c2.3,0,4.4,0.2,6.2,0.5c1.9,0.3,3.2,0.7,4.1,1.1c0.9,0.4,1.3,0.9,1.3,1.3V17c0,0.8,0.1,1.4,0.1,1.9s0.2,1,0.5,1.6
		c0.2,0.6,0.6,1,1,1.4s1.1,0.7,1.9,1c0.8,0.3,1.8,0.5,3,0.6c2.2,0.2,3.9-0.2,5-1.3c0.4-0.4,0.8-1,1-1.7s0.3-1.3,0.3-1.8
		C49.4,18.2,49.3,16.8,49.3,16.8z M46.3,20.3c-0.4,0.4-1.1,0.5-2,0.5c-0.4,0-0.7,0-0.8,0c-2-0.2-3.3-0.6-3.8-1.3
		c-0.2-0.4-0.3-1.2-0.3-2.5v-0.5c0-0.7-0.2-1.4-0.7-2s-1-1.1-1.7-1.5s-1.5-0.7-2.5-1s-1.9-0.5-2.8-0.6c-0.9-0.1-1.8-0.2-2.8-0.3
		s-1.8-0.1-2.3-0.2c-0.6,0-1.1,0-1.6,0c-0.9,0-1.8,0-2.7,0.1c-0.9,0.1-2.1,0.2-3.6,0.4c-1.4,0.2-2.8,0.5-4,1s-2.1,1-2.8,1.7
		c-0.7,0.8-1,1.6-1,2.5v0.6c0,0.5-0.1,0.9-0.1,1.1s-0.1,0.5-0.2,0.8c-0.1,0.3-0.2,0.5-0.4,0.7c-0.2,0.1-0.4,0.3-0.7,0.5
		s-0.7,0.3-1.2,0.4s-1,0.2-1.7,0.3c-1.5,0.2-2.5,0-2.9-0.5c-0.1-0.1-0.1-0.2-0.2-0.3c-0.1-0.1-0.1-0.2-0.1-0.3
		c0-0.1-0.1-0.2-0.1-0.3c0-0.1-0.1-0.2-0.1-0.4c0-0.2,0-0.3,0-0.4s0-0.2,0-0.4c0-0.2,0-0.3,0-0.4s0-0.2,0-0.5c0-0.2,0-0.4,0-0.4
		c0-0.1-0.1-0.3,0-0.5c0-0.2,0-0.4,0-0.5c0-1.3,0.5-2.6,1.6-3.7c1.6-1.6,4.2-2.9,7.7-3.8C16,7.5,20,7.1,24.4,7.1
		c6.3,0,11.5,0.8,15.7,2.5c0.8,0.3,1.6,0.7,2.3,1c0.7,0.4,1.4,0.8,2.1,1.4c0.7,0.5,1.3,1.1,1.7,1.8s0.7,1.4,0.7,2.2v0.8
		C46.9,18.7,46.7,19.8,46.3,20.3z"/>
	<path fill="#30AF51" d="M39.8,28.7c-0.6-1.7-1.3-3.2-2.3-4.7c-0.9-1.5-2-2.8-3.2-4s-2.6-2.1-4.2-2.8c-1.6-0.7-3.3-1.1-5.1-1.1h0
		c-2.6,0-5,0.7-7.2,2.1s-4,3.4-5.6,6.1c-1.3,2.2-2.3,4.6-2.9,7.1c-0.6,2.5-0.9,4.9-0.9,7c0,2.3,0.3,4,1,5.3s1.6,1.9,2.9,1.9h25.3
		c1.2,0,2.1-0.6,2.8-1.9c0.7-1.3,1-3,1.1-5.3c0-1.5-0.2-3.1-0.5-4.7C40.8,32,40.4,30.4,39.8,28.7z M38.7,41
		c-0.1,0.7-0.3,1.3-0.5,1.6s-0.3,0.5-0.5,0.5H12.4c-0.2,0-0.3-0.2-0.5-0.5s-0.4-0.9-0.5-1.6c-0.2-0.7-0.2-1.6-0.2-2.7
		c0-1.9,0.3-4,0.9-6.3c0.6-2.3,1.4-4.5,2.6-6.5c0.5-0.9,1.1-1.7,1.7-2.4c0.6-0.7,1.3-1.4,2.2-2.1c0.8-0.7,1.8-1.3,3-1.7
		c1.1-0.4,2.3-0.6,3.6-0.6l0,0c1.3,0,2.5,0.2,3.6,0.6s2.1,1,3,1.7s1.6,1.4,2.2,2.2c0.6,0.7,1.2,1.5,1.7,2.4c1.2,2,2,4.2,2.6,6.5
		s0.8,4.4,0.8,6.2C38.9,39.4,38.8,40.3,38.7,41z"/>
</g>
</svg>
